<?xml version="1.0" encoding="utf-8"?>
<!-- Generator: Adobe Illustrator 16.0.0, SVG Export Plug-In . SVG Version: 6.00 Build 0)  -->
<!DOCTYPE svg PUBLIC "-//W3C//DTD SVG 1.1//EN" "http://www.w3.org/Graphics/SVG/1.1/DTD/svg11.dtd">
<svg version="1.1" id="Capa_1" xmlns="http://www.w3.org/2000/svg" xmlns:xlink="http://www.w3.org/1999/xlink" x="0px" y="0px"
	 width="100px" height="100px" viewBox="0 0 100 100" enable-background="new 0 0 100 100" xml:space="preserve">
<path fill="#FFFFFF" d="M89.867,54.254c-0.309-0.361-0.691-0.689-1.098-1.038c-1.054-0.903-1.797-1.608-1.771-2.468
	c0.008-0.246-0.05-0.477-0.147-0.685c0-0.113,0.008-0.224,0.008-0.337c0-0.009,0.002-0.017,0.002-0.025
	c0-5.094-1.049-10.023-3.029-14.555c0.02-0.25-0.018-0.507-0.13-0.751c-0.362-0.777,0.043-1.719,0.655-2.964
	c0.234-0.48,0.459-0.934,0.6-1.387c2.201-7.083-1.086-14.762-8.372-19.562l-0.253-0.167c-7.287-4.805-15.643-4.798-21.279,0.017
	c-0.361,0.309-0.691,0.692-1.039,1.099c-0.904,1.053-1.619,1.792-2.468,1.77c-0.241-0.007-0.47,0.049-0.675,0.144
	c-0.125-0.001-0.249-0.009-0.374-0.009c-0.621,0-1.238,0.016-1.854,0.047c-0.087,0.004-0.172,0.014-0.259,0.019
	c-0.533,0.03-1.065,0.068-1.594,0.122c-0.022,0.002-0.044,0.006-0.066,0.008c-3.753,0.385-7.379,1.348-10.782,2.835
	c-0.25-0.02-0.507,0.016-0.75,0.13c-0.777,0.362-1.719-0.043-2.964-0.655c-0.48-0.236-0.933-0.458-1.387-0.6
	c-7.083-2.197-14.761,1.09-19.561,8.37l-0.17,0.256c-4.8,7.289-4.792,15.642,0.019,21.279c0.309,0.362,0.693,0.692,1.099,1.041
	c1.052,0.903,1.795,1.609,1.769,2.467c-0.007,0.245,0.05,0.475,0.148,0.683c-0.001,0.111-0.008,0.221-0.008,0.333
	c0,0.011-0.003,0.021-0.003,0.033c0,5.094,1.05,10.022,3.031,14.555c-0.02,0.25,0.016,0.507,0.129,0.75
	c0.362,0.777-0.042,1.72-0.654,2.964c-0.236,0.48-0.458,0.936-0.6,1.389c-2.2,7.078,1.087,14.758,8.373,19.564l0.252,0.166
	c3.64,2.396,7.544,3.596,11.244,3.596c3.709,0,7.214-1.205,10.038-3.613c0.361-0.309,0.69-0.692,1.038-1.1
	c0.903-1.054,1.626-1.762,2.465-1.771c0.244,0.012,0.474-0.045,0.683-0.146c0.123,0.002,0.243,0.01,0.365,0.01
	c0.62,0,1.236-0.017,1.852-0.047c0.096-0.004,0.188-0.016,0.282-0.021c0.525-0.03,1.05-0.067,1.571-0.12
	c0.025-0.003,0.053-0.007,0.079-0.01c3.747-0.387,7.37-1.348,10.769-2.834c0.251,0.021,0.512-0.016,0.756-0.13
	c0.777-0.362,1.721,0.043,2.967,0.655c0.479,0.234,0.93,0.457,1.383,0.6c1.46,0.453,2.945,0.673,4.425,0.673
	c5.698,0,11.325-3.265,15.14-9.047l0.164-0.251C94.688,68.247,94.682,59.895,89.867,54.254z M57.154,82.396
	c-0.049,0.011-0.1,0.019-0.149,0.027c0.231-1.77,0.683-3.6,1.163-5.537c0.697-2.806,1.411-5.703,1.508-8.681
	c0.219-0.108,0.432-0.226,0.646-0.342c0.013-0.007,0.023-0.015,0.037-0.021c0.429-0.233,0.851-0.479,1.264-0.745
	c0.081,2.989-0.674,6.072-1.417,9.062c-0.476,1.913-0.958,3.886-1.216,5.806c-0.575,0.152-1.156,0.292-1.744,0.413
	C57.216,82.386,57.186,82.393,57.154,82.396z M52.562,82.996c-0.147,0.009-0.293,0.021-0.443,0.029
	c-0.039,0.002-0.119,0-0.119,0.002v-0.311c0-0.035,0.025-0.064,0.031-0.103c0.223-1.829,0.693-3.726,1.191-5.734
	c0.561-2.247,1.115-4.565,1.369-6.937c0.083-0.018,0.164-0.039,0.247-0.057c0.591-0.127,1.175-0.273,1.748-0.451
	c-0.222,2.239-0.78,4.515-1.331,6.728c-0.498,2.006-1.014,4.079-1.26,6.088c-0.025,0.216-0.003,0.425,0.057,0.62
	c-0.102,0.011-0.201,0.023-0.305,0.033C53.355,82.943,52.96,82.973,52.562,82.996z M43.814,17.008
	c0.058-0.012,0.117-0.02,0.174-0.031c-0.232,1.769-0.683,3.601-1.164,5.539c-0.697,2.804-1.411,5.701-1.506,8.678
	c-0.216,0.107-0.427,0.223-0.639,0.338c-0.018,0.01-0.036,0.021-0.054,0.03c-0.426,0.232-0.844,0.477-1.254,0.74
	c-0.082-2.991,0.674-6.074,1.418-9.065c0.476-1.912,0.96-3.883,1.217-5.803c0.58-0.153,1.165-0.293,1.756-0.415
	C43.779,17.015,43.796,17.011,43.814,17.008z M48.473,16.401c0.131-0.007,0.262-0.019,0.393-0.025
	C48.909,16.374,49,16.375,49,16.373v0.279c0,0.045-0.026,0.088-0.032,0.135c-0.224,1.827-0.696,3.721-1.195,5.728
	c-0.559,2.249-1.117,4.569-1.372,6.941c-0.094,0.019-0.186,0.045-0.28,0.065c-0.563,0.121-1.119,0.263-1.668,0.43
	c-0.016,0.005-0.032,0.007-0.048,0.012c0.222-2.239,0.78-4.511,1.33-6.723c0.499-2.006,1.014-4.08,1.259-6.089
	c0.026-0.216,0.003-0.426-0.057-0.622c0.098-0.01,0.195-0.022,0.293-0.032C47.642,16.456,48.057,16.427,48.473,16.401z
	 M72.646,74.623c0.06-0.158,0.113-0.318,0.168-0.48l0.177,0.176C72.878,74.422,72.762,74.521,72.646,74.623z M70.123,71.45
	c0.266,0.836-0.182,1.914-0.661,3.055c-0.382,0.908-0.776,1.849-0.896,2.847c-0.015,0.127-0.008,0.25,0.009,0.369
	c-0.447,0.29-0.902,0.569-1.364,0.838c0.193-0.74,0.426-1.502,0.669-2.289c0.573-1.858,1.149-3.764,1.321-5.74L70.123,71.45z
	 M66.191,68.312c0.297,2.283-0.453,4.717-1.18,7.071c-0.468,1.519-0.951,3.089-1.166,4.642c-0.013,0.084-0.013,0.166-0.011,0.248
	c-0.541,0.237-1.088,0.463-1.644,0.672c0.246-1.311,0.576-2.657,0.925-4.062c0.864-3.483,1.76-7.085,1.465-10.803
	c-0.006-0.072-0.022-0.142-0.038-0.21l1.732,1.732C66.195,67.825,66.16,68.064,66.191,68.312z M54.072,66.99
	c-0.008,0.002-0.016,0.005-0.023,0.006c-0.497,0.104-1.005,0.174-1.517,0.232c-0.083,0.01-0.163,0.027-0.246,0.035
	c-0.589,0.061-1.187,0.092-1.79,0.092c-8.518,0-15.646-6.063-17.295-14.102l0,0c-0.103-0.5-0.174-1.011-0.233-1.525
	c-0.009-0.08-0.027-0.158-0.035-0.237c-0.06-0.589-0.091-1.186-0.091-1.79c0-8.413,5.918-15.459,13.805-17.222
	c0.108-0.024,0.212-0.058,0.32-0.08c0.333-0.068,0.676-0.106,1.015-0.155c0.251-0.036,0.499-0.086,0.753-0.111
	c0.105-0.011,0.213-0.008,0.319-0.016c0.478-0.039,0.958-0.07,1.442-0.07c0.007,0,0.013-0.002,0.02-0.002
	c9.043,0.01,16.504,6.854,17.512,15.633c0.009,0.079,0.025,0.155,0.033,0.233c0.061,0.589,0.092,1.186,0.092,1.791
	C68.152,58.211,62.1,65.333,54.072,66.99z M25.879,72.193c-0.105-0.113-0.206-0.232-0.309-0.348c0.16,0.059,0.322,0.115,0.487,0.17
	L25.879,72.193z M17.583,51.132c1.827,0.224,3.724,0.745,5.731,1.243c2.249,0.559,4.569,1.143,6.939,1.396
	c0.017,0.08,0.038,0.172,0.056,0.252c0.126,0.595,0.274,1.188,0.451,1.764c-2.239-0.223-4.512-0.777-6.724-1.328
	c-2.006-0.498-4.081-1.014-6.09-1.259c-0.215-0.023-0.424,0.002-0.62,0.062c0-0.006-0.001-0.011-0.002-0.018
	c-0.007-0.069-0.016-0.139-0.023-0.209c-0.051-0.508-0.089-1.02-0.117-1.532c-0.002-0.036-0.005-0.173-0.007-0.21
	C17.174,51.229,17.175,51,17.172,51h0.272C17.49,51,17.535,51.126,17.583,51.132z M17.776,56.209c1.768,0.23,3.6,0.684,5.536,1.164
	c2.804,0.695,5.702,1.41,8.678,1.507c0.11,0.222,0.229,0.437,0.346,0.653c0.002,0.005,0.005,0.009,0.008,0.014
	c0.236,0.434,0.485,0.86,0.753,1.278c-2.994,0.079-6.074-0.675-9.066-1.418c-1.91-0.476-3.881-0.958-5.799-1.216
	C18.06,57.538,17.909,56.877,17.776,56.209z M21.64,66.415c0.741,0.194,1.501,0.426,2.288,0.668c1.857,0.573,3.76,1.153,5.736,1.326
	l-0.918,0.918c-0.835,0.266-1.913-0.183-3.053-0.662c-0.909-0.381-1.849-0.776-2.846-0.894c-0.126-0.016-0.249-0.008-0.369,0.008
	C22.188,67.332,21.909,66.877,21.64,66.415z M32.593,65.48c-0.22-0.082-0.46-0.119-0.708-0.086
	c-2.284,0.297-4.718-0.451-7.073-1.179c-1.519-0.469-3.089-0.952-4.643-1.168c-0.082-0.011-0.163-0.01-0.243-0.007
	c-0.238-0.542-0.463-1.091-0.672-1.648c1.308,0.246,2.652,0.576,4.054,0.926c3.021,0.75,6.132,1.523,9.33,1.523
	c0.49,0,0.983-0.019,1.478-0.058c0.073-0.007,0.143-0.022,0.212-0.038L32.593,65.48z M28.347,24.778
	c-0.059,0.157-0.113,0.317-0.167,0.479l-0.176-0.176C28.117,24.979,28.233,24.88,28.347,24.778z M30.87,27.948
	c-0.263-0.835,0.183-1.911,0.662-3.05c0.382-0.91,0.778-1.851,0.894-2.85c0.015-0.125,0.009-0.248-0.007-0.368
	c0.448-0.29,0.903-0.569,1.365-0.838c-0.194,0.741-0.426,1.503-0.669,2.291c-0.573,1.857-1.15,3.76-1.322,5.737L30.87,27.948z
	 M34.801,31.087c-0.297-2.284,0.453-4.717,1.179-7.07c0.469-1.519,0.953-3.09,1.168-4.644c0.012-0.083,0.011-0.166,0.009-0.247
	c0.542-0.238,1.09-0.463,1.646-0.671c-0.247,1.309-0.577,2.654-0.926,4.057c-0.867,3.484-1.763,7.087-1.467,10.806
	c0.007,0.084,0.045,0.156,0.065,0.235l-1.76-1.76C34.797,31.574,34.833,31.335,34.801,31.087z M75.111,27.206
	c0.104,0.113,0.203,0.229,0.306,0.344c-0.157-0.059-0.317-0.113-0.481-0.167L75.111,27.206z M72.246,30.074
	c0.836-0.266,1.911,0.181,3.054,0.661c0.909,0.382,1.851,0.777,2.849,0.894c0.06,0.007,0.117,0.01,0.177,0.01
	c0.063,0,0.118-0.026,0.181-0.034c0.293,0.453,0.575,0.913,0.848,1.38c-0.738-0.194-1.498-0.425-2.283-0.667
	c-1.858-0.573-3.766-1.152-5.743-1.324L72.246,30.074z M83.217,43.192c-1.767-0.232-3.598-0.683-5.533-1.164
	c-2.805-0.697-5.701-1.411-8.68-1.507c-0.109-0.22-0.229-0.436-0.346-0.651c-0.004-0.006-0.008-0.012-0.01-0.018
	c-0.235-0.433-0.484-0.859-0.752-1.275c2.988-0.077,6.074,0.674,9.062,1.417c1.911,0.475,3.881,0.958,5.801,1.215
	C82.934,41.862,83.085,42.523,83.217,43.192z M83.411,48.067c-1.829-0.223-3.726-0.645-5.734-1.144
	c-2.247-0.559-4.565-1.091-6.936-1.345c-0.017-0.08-0.037-0.145-0.056-0.224c-0.125-0.594-0.273-1.175-0.451-1.753
	c2.238,0.222,4.513,0.784,6.725,1.334c2.006,0.499,4.08,1.016,6.089,1.261c0.062,0.008,0.123,0.012,0.185,0.012
	c0.15,0,0.295-0.037,0.435-0.08c0.009,0.087,0.021,0.173,0.028,0.26c0.047,0.475,0.082,0.953,0.107,1.433
	c0.004,0.07,0.012,0.038,0.016,0.108c0,0.058,0,0.071,0.002,0.071h-0.262C83.51,48,83.462,48.074,83.411,48.067z M68.4,33.92
	c0.221,0.081,0.459,0.117,0.709,0.084c2.281-0.295,4.72,0.454,7.074,1.181c1.519,0.468,3.088,0.952,4.64,1.167
	c0.069,0.01,0.14,0.014,0.208,0.014c0.013,0,0.023-0.006,0.035-0.007c0.238,0.542,0.463,1.09,0.672,1.646
	c-1.307-0.246-2.652-0.576-4.055-0.924c-3.484-0.866-7.092-1.763-10.805-1.466c-0.072,0.006-0.143,0.022-0.21,0.038L68.4,33.92z
	 M63.988,34.093C60.721,31.265,57,29.45,52,29.12V16.373c8,0.359,15.402,3.597,20.994,8.712L63.988,34.093z M25.883,27.103
	l9.007,8.957C32.062,39.327,30.249,44,29.918,48H17.172C17.532,40,20.769,32.695,25.883,27.103z M37.01,65.309
	C40.276,68.135,44,69.949,49,70.279v12.748c-8-0.358-15.406-3.596-20.998-8.711L37.01,65.309z M75.111,72.098l-9.008-9.059
	C68.932,59.771,70.746,56,71.076,51H83.82C83.463,59,80.227,66.505,75.111,72.098z M56.289,13.384
	c0.271-0.315,0.525-0.612,0.71-0.77c4.669-3.986,11.442-3.907,17.681,0.204l0.252,0.167c6.238,4.11,8.981,10.306,7.159,16.169
	c-0.071,0.23-0.243,0.582-0.427,0.954c-0.073,0.149-0.15,0.31-0.229,0.475c-1.468-2.363-3.209-4.579-5.227-6.595
	c-0.021-0.021-0.05-0.027-0.072-0.046c-5.354-5.332-12.354-9.009-20.164-10.194C56.082,13.623,56.189,13.499,56.289,13.384z
	 M14.181,43.91c-0.315-0.271-0.612-0.526-0.77-0.711c-3.984-4.667-3.906-11.443,0.2-17.678l0.17-0.255
	c4.111-6.235,10.307-8.98,16.169-7.16c0.23,0.071,0.582,0.244,0.954,0.427c0.149,0.073,0.31,0.151,0.475,0.23
	c-2.362,1.466-4.577,3.208-6.592,5.224c-0.022,0.022-0.03,0.052-0.05,0.076c-5.329,5.355-9.005,12.356-10.189,20.166
	C14.422,44.117,14.297,44.009,14.181,43.91z M44.706,86.02c-0.27,0.315-0.525,0.612-0.708,0.77
	c-4.669,3.984-11.445,3.904-17.684-0.205l-0.251-0.165c-6.237-4.114-8.98-10.312-7.159-16.171c0.072-0.23,0.244-0.582,0.427-0.954
	c0.073-0.147,0.151-0.31,0.229-0.474c1.466,2.361,3.208,4.576,5.223,6.593c0.05,0.05,0.106,0.091,0.162,0.133
	c5.344,5.285,12.31,8.931,20.077,10.108C44.913,85.779,44.805,85.904,44.706,86.02z M87.379,73.884l-0.165,0.25
	C83.1,80.371,76.9,83.111,71.048,81.296c-0.229-0.071-0.58-0.244-0.95-0.427c-0.15-0.074-0.313-0.153-0.479-0.232
	c2.36-1.467,4.575-3.207,6.591-5.223c0.049-0.049,0.088-0.104,0.129-0.158c5.286-5.345,8.934-12.312,10.11-20.084
	c0.127,0.111,0.253,0.221,0.37,0.321c0.313,0.271,0.611,0.524,0.769,0.708C91.57,60.87,91.491,67.646,87.379,73.884z"/>
<path fill="#FFFFFF" d="M83.729,93.363c-2.257,0-4.371-0.876-5.953-2.468l-7.239-7.237c-5.257,2.851-11.478,4.295-18.511,4.295
	c-0.324,0-0.646,0-0.968-0.011c-0.229,0.011-0.556,0.011-0.871,0.011c-7.042,0-13.26-1.444-18.512-4.294l-7.24,7.239
	c-1.588,1.59-3.703,2.465-5.955,2.465c-2.253,0-4.368-0.876-5.954-2.466c-1.59-1.589-2.467-3.704-2.467-5.953
	s0.876-4.364,2.468-5.956l7.235-7.235c-2.76-5.098-4.201-11.117-4.284-17.912c-0.007-0.055-0.012-0.136-0.012-0.222V15.785
	c0-4.643,3.779-8.42,8.424-8.42c4.644,0,8.422,3.777,8.422,8.42v4.852c5.333-2.738,11.646-4.06,18.819-3.94
	c0.272-0.006,0.598-0.009,0.922-0.009c6.756,0,12.745,1.326,17.845,3.944v-4.847c0-4.643,3.777-8.42,8.421-8.42
	s8.422,3.777,8.422,8.42v37.834c0,0.086-0.006,0.168-0.014,0.248c-0.084,6.772-1.523,12.789-4.28,17.882l7.24,7.239
	c3.279,3.285,3.279,8.628,0.001,11.91C88.091,92.489,85.975,93.363,83.729,93.363z M70.79,80.291c0.388,0,0.771,0.15,1.061,0.439
	l8.049,8.047c1.019,1.023,2.377,1.586,3.829,1.586c1.447,0,2.812-0.564,3.84-1.588c2.108-2.111,2.108-5.552-0.003-7.667
	l-8.046-8.044c-0.484-0.483-0.579-1.234-0.231-1.823c2.863-4.847,4.356-10.713,4.44-17.438c0.001-0.041,0.009-0.179,0.013-0.22
	V15.785c0-2.989-2.433-5.42-5.422-5.42s-5.421,2.431-5.421,5.42v7.422c0,0.545-0.296,1.048-0.773,1.312
	c-0.477,0.265-1.06,0.25-1.521-0.04c-5.298-3.313-11.862-4.922-19.47-4.782c-0.344-0.005-0.632-0.007-0.917-0.007
	c-7.266,0-13.526,1.613-18.608,4.795c-0.462,0.288-1.045,0.304-1.522,0.041c-0.478-0.264-0.773-0.767-0.773-1.312v-7.428
	c0-2.989-2.432-5.42-5.422-5.42c-2.991,0-5.424,2.431-5.424,5.42v37.834c0.001,0.018,0.009,0.119,0.01,0.136
	c0.084,6.771,1.579,12.639,4.444,17.49c0.348,0.589,0.253,1.34-0.231,1.823l-8.042,8.041c-1.025,1.025-1.589,2.387-1.589,3.835
	c0,1.447,0.564,2.809,1.589,3.832c1.021,1.024,2.381,1.587,3.832,1.587c1.45,0,2.812-0.563,3.833-1.586l8.047-8.047
	c0.485-0.484,1.235-0.578,1.825-0.23c4.992,2.955,11.044,4.453,17.988,4.453c0.295,0.002,0.592,0,0.884-0.009
	c0.385,0.01,0.672,0.006,0.961,0.009c6.955,0,13.011-1.498,18.008-4.453C70.264,80.359,70.527,80.291,70.79,80.291z"/>
<g>
	<path fill="#FFFFFF" d="M51.06,34.278c1.405,0,2.71,0.396,3.772,1.146c2.162,1.525,3.471,3.836,3.5,6.182
		c0.028,2.189-1.026,4.144-3.049,5.649c-5.639,4.194-5.55,7.568-5.437,11.84c0.017,0.604,0.033,1.235,0.033,1.903
		c0,0.827,0.673,1.5,1.5,1.5s1.5-0.673,1.5-1.5c0-0.694-0.017-1.353-0.034-1.981c-0.104-3.929-0.16-6.091,4.229-9.355
		c2.785-2.072,4.298-4.946,4.258-8.094c-0.042-3.304-1.825-6.518-4.771-8.596c-1.575-1.111-3.477-1.699-5.497-1.699
		c-1.455,0-2.935,0.319-4.28,0.923c-3.307,1.484-5.447,4.494-5.874,8.257c-0.093,0.822,0.5,1.566,1.321,1.66
		c0.065,0.008,0.124,0.011,0.182,0.011c0.757,0,1.393-0.573,1.479-1.333c0.432-3.812,3.026-5.366,4.122-5.857
		C48.967,34.505,50.021,34.278,51.06,34.278z"/>
	<path fill="#FFFFFF" d="M51.38,63.498c-1.378,0-2.5-1.121-2.5-2.5c0-0.658-0.017-1.281-0.033-1.876
		c-0.116-4.382-0.217-8.165,5.839-12.669c1.755-1.307,2.67-2.979,2.646-4.834c-0.025-2.026-1.176-4.036-3.076-5.377
		c-1.563-1.102-3.905-1.261-5.833-0.396c-0.939,0.421-3.164,1.756-3.538,5.057c-0.143,1.266-1.206,2.221-2.472,2.221
		c-0.095,0-0.192-0.005-0.3-0.018c-1.364-0.156-2.351-1.397-2.196-2.766c0.467-4.123,2.821-7.424,6.458-9.056
		c1.474-0.661,3.096-1.011,4.69-1.011c2.229,0,4.328,0.651,6.073,1.882c3.206,2.262,5.148,5.776,5.194,9.4
		c0.044,3.476-1.611,6.64-4.661,8.909c-3.973,2.956-3.927,4.702-3.825,8.527c0.018,0.636,0.034,1.304,0.034,2.008
		C53.88,62.377,52.759,63.498,51.38,63.498z M51.06,33.278c1.612,0,3.116,0.459,4.349,1.328c2.424,1.71,3.891,4.322,3.924,6.986
		c0.032,2.523-1.161,4.759-3.451,6.464c-5.224,3.885-5.145,6.875-5.034,11.011c0.017,0.611,0.033,1.252,0.033,1.93
		c0,0.275,0.225,0.5,0.5,0.5s0.5-0.225,0.5-0.5c0-0.685-0.017-1.333-0.034-1.953c-0.104-3.982-0.174-6.611,4.632-10.186
		c2.521-1.876,3.891-4.461,3.854-7.279c-0.038-2.985-1.663-5.897-4.347-7.792c-1.406-0.992-3.107-1.516-4.921-1.516
		c-1.314,0-2.653,0.289-3.871,0.835c-2.976,1.335-4.903,4.054-5.289,7.457c-0.031,0.274,0.167,0.522,0.44,0.554
		c0.277,0.011,0.525-0.187,0.553-0.441c0.49-4.324,3.455-6.096,4.707-6.658C48.687,33.535,49.881,33.278,51.06,33.278z"/>
</g>
<g>
	<path fill="#FFFFFF" d="M51.38,69.375c-0.812,0-1.5,0.708-1.5,1.547c0,0.827,0.673,1.5,1.5,1.5s1.5-0.673,1.5-1.5
		C52.88,70.013,52.221,69.375,51.38,69.375z"/>
	<path fill="#FFFFFF" d="M51.38,73.422c-1.378,0-2.5-1.121-2.5-2.5c0-1.381,1.145-2.547,2.5-2.547c1.425,0,2.5,1.095,2.5,2.547
		C53.88,72.301,52.759,73.422,51.38,73.422z M51.38,70.375c-0.262,0-0.5,0.261-0.5,0.547c0,0.275,0.225,0.5,0.5,0.5
		s0.5-0.225,0.5-0.5C51.88,70.585,51.688,70.375,51.38,70.375z"/>
</g>
</svg>
