<?xml version="1.0" encoding="utf-8"?>
<!-- Generator: Adobe Illustrator 16.0.0, SVG Export Plug-In . SVG Version: 6.00 Build 0)  -->
<!DOCTYPE svg PUBLIC "-//W3C//DTD SVG 1.1//EN" "http://www.w3.org/Graphics/SVG/1.1/DTD/svg11.dtd">
<svg version="1.1" id="Capa_1" xmlns="http://www.w3.org/2000/svg" xmlns:xlink="http://www.w3.org/1999/xlink" x="0px" y="0px"
	 width="100px" height="100px" viewBox="0 0 100 100" enable-background="new 0 0 100 100" xml:space="preserve">
<g>
	<path fill="#FFFFFF" d="M96.854,41.651L82.51,33.758l14.344-7.893c0.479-0.264,0.777-0.767,0.777-1.314s-0.298-1.051-0.777-1.314
		L67.532,7.105c-0.263-0.172-0.58-0.266-0.906-0.25c-0.322,0.014-0.622,0.13-0.862,0.319l-15.763,8.672L34.086,7.089
		c-0.223-0.141-0.482-0.226-0.755-0.238c-0.384-0.018-0.73,0.108-1.008,0.331L3.146,23.234c-0.479,0.264-0.777,0.768-0.777,1.314
		s0.298,1.05,0.777,1.314l14.349,7.895L3.146,41.652c-0.479,0.264-0.777,0.768-0.777,1.314s0.246,1.051,0.725,1.314L19,53.062
		v22.114c0,0.547,0.351,1.051,0.829,1.314l29.422,16.174c0.067,0.037,0.152,0.057,0.222,0.082c0.045,0.017,0.094,0.116,0.141,0.128
		C49.74,92.907,49.859,93,49.985,93l0,0h0.008c0.128,0,0.259-0.093,0.384-0.126c0.047-0.012,0.091-0.073,0.136-0.091
		c0.07-0.025,0.144-0.063,0.21-0.101l29.448-16.184C80.65,76.235,81,75.723,81,75.176V53.059l15.905-8.78
		c0.479-0.264,0.751-0.767,0.751-1.314S97.333,41.915,96.854,41.651z M50.001,19.296l26.285,14.462L50.001,48.222L23.716,33.759
		L50.001,19.296z M66.711,10.078L93.02,24.551l-13.622,7.496L53.09,17.572L66.711,10.078z M33.289,10.075l13.624,7.496
		L20.606,32.046L6.981,24.549L33.289,10.075z M20.605,35.471l26.307,14.475l-13.623,7.496L6.981,42.967L20.605,35.471z M78,74.289
		L52,88.812v-1.656c0-0.828-0.672-1.5-1.5-1.5c-0.829,0-1.5,0.672-1.5,1.5v1.655L22,74.289V54.712l10.417,5.87
		C32.662,60.741,32.979,61,33.283,61c0.022,0,0.058,0,0.081,0c0.321,0,0.875-0.299,1.116-0.486L49,52.495v2.33
		c0,0.829,0.671,1.5,1.5,1.5c0.828,0,1.5-0.671,1.5-1.5v-2.332l14.159,8.097c0.233,0.148,0.257,0.41,0.544,0.41
		c0.011,0,0.021,0,0.033,0c0.35,0,0.73-0.289,0.99-0.498L78,54.709V74.289z M66.712,57.439l-13.621-7.494L79.399,35.47l13.62,7.495
		L66.712,57.439z"/>
	<path fill="#FFFFFF" d="M50.5,63.06c-0.829,0-1.5,0.671-1.5,1.5v12.942c0,0.828,0.671,1.5,1.5,1.5c0.828,0,1.5-0.672,1.5-1.5V64.56
		C52,63.73,51.328,63.06,50.5,63.06z"/>
</g>
</svg>
