<?xml version="1.0" encoding="utf-8"?>
<!-- Generator: Adobe Illustrator 16.0.0, SVG Export Plug-In . SVG Version: 6.00 Build 0)  -->
<!DOCTYPE svg PUBLIC "-//W3C//DTD SVG 1.1//EN" "http://www.w3.org/Graphics/SVG/1.1/DTD/svg11.dtd">
<svg version="1.1" id="Capa_1" xmlns="http://www.w3.org/2000/svg" xmlns:xlink="http://www.w3.org/1999/xlink" x="0px" y="0px"
	 width="100px" height="100px" viewBox="0 0 100 100" enable-background="new 0 0 100 100" xml:space="preserve">
<g>
	<path fill="#FFFFFF" d="M95.918,42.863c-0.229-1.019-0.876-1.428-1.243-1.582c-1.031-0.43-2.168-0.526-2.998-0.597
		c-0.28-0.023-0.663-0.056-0.774-0.086c-0.318-0.104-0.643-0.127-0.986-0.152c-1.033-0.074-1.813-0.204-2.456-1.196
		c-0.242-0.372-0.507-0.825-0.8-1.325c-1.27-2.168-3.104-5.296-5.869-6.965c0.894-2.583,1.193-4.539,0.931-6.071
		c-0.029-0.293-0.139-0.812-0.526-1.319c-0.44-0.578-1.32-1.277-3.11-1.181c-0.707,0.037-1.33,0.049-1.847,0.043
		c-0.085-0.237-0.211-0.469-0.386-0.69c-0.405-0.5-0.997-0.774-1.665-0.774c-0.891,0-1.774,0.483-2.821,1.057
		c-0.801,0.436-2.249,1.541-3.562,2.599C61.315,20.11,50.896,17,41.93,17c-0.013,0-0.024,0-0.038,0
		C17.255,17,5.022,28.518,4.086,39.216c-0.377,4.323,0.538,8.508,2.719,12.435c0.208,1.211,0.728,4.103,1.108,5.034
		c0.708,1.727,1.21,4.06,1.743,6.53c0.723,3.354,1.471,6.823,2.863,9.138c0.596,0.992,1.05,2.301,1.489,3.566
		c0.502,1.445,0.977,2.812,1.696,3.925c0.253,0.393,0.448,0.71,0.608,0.97c0.662,1.08,1.1,1.794,2.631,1.966
		c0.01,0.002,0.204,0.008,0.521,0.008c1.5,0,5.764-0.135,6.481-1.555l0.072-0.09c0.496-0.605,1.035-1.416,1.138-3.389
		c0.046-0.918,1.511-4.625,3.629-9.211c2.707,0.73,5.501,1.248,8.326,1.545c3.514,0.367,7.041,0.389,10.497,0.055
		c1.971,3.182,3.834,6.371,5.547,9.492l0.103,0.188l0.149,0.15c1.233,1.238,6.163,2.516,9.125,2.066
		c1.951-0.295,2.82-1.234,3.209-1.977c0.787-1.514,0.752-4.33,0.601-8.787c-0.087-2.537-0.183-5.363,0.083-7.021l7.227-1.539
		l0.163-0.045c2.359-0.788,3.844-2.637,4.476-3.875c0.194-0.023,0.427-0.045,0.62-0.063c1.668-0.16,4.458-0.429,6.619-2.333
		c1.606-1.428,2.557-1.901,2.886-1.908l0.132,0.004c0.848,0,2.471-0.901,2.55-2.185c0.008-0.124,0.002-0.253-0.021-0.38l0.454-0.806
		C94.626,49.692,96.392,44.967,95.918,42.863z M72.831,24.643c0.141-0.077,0.296-0.162,0.45-0.245
		c0.017,0.044,0.035,0.088,0.057,0.132c0.23,0.478,0.696,0.798,1.226,0.842c0.043,0.004,1.518,0.127,3.678,0.013l0.16-0.004
		c0.176,0,0.293,0.017,0.366,0.034c0.195,1.174-0.214,3.082-1.216,5.67c-2.051,3.939-4.806,8.38-6.158,9.66
		c-3.412-4.067-2.482-11.434-2.156-13.415C70.918,25.962,72.264,24.952,72.831,24.643z M91.168,49.277l-1.31,2.251
		c-0.924,0.142-2.18,0.724-4.318,2.623c-1.428,1.259-3.444,1.452-4.917,1.594c-1.258,0.12-2.559,0.245-2.923,1.505
		c-0.118,0.393-1.067,1.947-2.764,2.549l-8.888,1.893l-0.277,0.801c-0.666,1.93-0.551,5.309-0.43,8.887
		c0.092,2.691,0.218,6.375-0.261,7.297c-0.052,0.098-0.277,0.248-0.745,0.352c-2.116,0.459-5.833-0.602-6.699-1.104
		c-1.843-3.346-3.854-6.766-5.98-10.166l-0.502-0.803l-0.94,0.107c-3.543,0.406-7.174,0.42-10.791,0.041
		c-3.079-0.322-6.117-0.924-9.032-1.789l-1.235-0.367l-0.549,1.166c-1.977,4.203-4.354,9.607-4.448,11.486
		c-0.061,1.152-0.283,1.424-0.462,1.643c-0.025,0.029-0.052,0.062-0.08,0.098c-0.955,0.252-3.696,0.529-4.339,0.459
		c-0.023-0.002-0.045-0.004-0.065-0.008c-0.09-0.131-0.222-0.348-0.343-0.545c-0.17-0.277-0.378-0.615-0.646-1.031
		c-0.522-0.809-0.939-2.01-1.381-3.281c-0.489-1.408-0.995-2.863-1.75-4.125c-1.136-1.891-1.831-5.11-2.502-8.225
		c-0.537-2.488-1.092-5.062-1.899-7.034c-0.196-0.479-0.656-2.788-0.971-4.653l-0.044-0.262l-0.132-0.231
		c-1.969-3.455-2.8-7.129-2.469-10.919c0.822-9.384,12.106-19.477,34.855-19.469c8.338,0.004,18.359,2.991,24.291,7.172
		c-0.45,2.909-1.279,11.509,3.593,16.259c0.381,0.37,0.882,0.574,1.41,0.574c0.71,0,2.816-0.007,8.321-10.285
		c1.945,1.322,3.413,3.802,4.528,5.706c0.318,0.544,0.607,1.037,0.87,1.441c1.505,2.322,3.702,2.48,4.758,2.556
		c0.135,0.009,0.25,0.015,0.267,0.01c0.416,0.138,0.898,0.178,1.457,0.226c0.494,0.042,1.077,0.091,1.588,0.214
		C92.943,45.231,91.776,48.573,91.168,49.277z"/>
	<path fill="#FFFFFF" d="M46.696,22.64c-1.318-0.132-2.627-0.194-3.827-0.197c-3.368,0-6.585,0.242-9.563,0.719
		c-0.818,0.131-1.375,0.9-1.244,1.718c0.118,0.738,0.755,1.263,1.479,1.263c0.079,0,0.159-0.006,0.239-0.019
		c2.821-0.452,5.879-0.681,9.089-0.681c1.097-0.02,2.308,0.06,3.526,0.183c0.818,0.082,1.559-0.518,1.643-1.343
		C48.121,23.458,47.52,22.723,46.696,22.64z"/>
</g>
</svg>
