<?xml version="1.0" encoding="utf-8"?>
<!-- Generator: Adobe Illustrator 16.0.0, SVG Export Plug-In . SVG Version: 6.00 Build 0)  -->
<!DOCTYPE svg PUBLIC "-//W3C//DTD SVG 1.1//EN" "http://www.w3.org/Graphics/SVG/1.1/DTD/svg11.dtd">
<svg version="1.1" id="Capa_1" xmlns="http://www.w3.org/2000/svg" xmlns:xlink="http://www.w3.org/1999/xlink" x="0px" y="0px"
	 width="30px" height="30px" viewBox="0 0 30 30" enable-background="new 0 0 30 30" xml:space="preserve">
<g>
	<path fill="#FFFFFF" d="M15.468,4.675C9.774,4.675,5.142,9.307,5.142,15s4.632,10.325,10.326,10.325S25.794,20.693,25.794,15
		S21.161,4.675,15.468,4.675z M15.642,23.325c-4.591,0-8.413-3.734-8.413-8.325c0-0.201-0.027-0.526-0.013-0.724l0.828,1.172h0.967
		v-1H10c0.438,0,0.791,0,0.791-1h0.906l0.908-0.523l-1.548-1.477h-0.073l0,0H9.828c-0.493,0-0.799-0.219-0.799-0.713
		c0-0.492-0.018-0.714,0.982-0.714V9.448H9.592c1.507-2,3.584-2.604,5.876-2.604c2.363,0,4.496,0.91,6.014,2.497l-1.219,0.703
		c-0.289-0.383-0.744-0.651-1.258-0.651c-0.871,0-1.578,0.698-1.578,1.568l0.674,0.236l-0.074,0.198l-0.383-0.114l-0.633,0.427
		v-0.667l-0.652,0.407h0.666l0.402,1h0.342c0.373,0,0.242,0.381,0.242,0.755v1.245h1.111l1.025-0.514
		c0.287,0,0.518-0.486,0.518,0.514h-1.543l1.621,1.724l1.289-1.724h0.654c0.27,0,0.488,0.476,0.488,0.747l0.17,0.106
		c0,0.27-0.334,0.617,0.666,0.617v0.505C23.011,20.337,19.747,23.325,15.642,23.325z"/>
	<path fill="#FFFFFF" d="M9.929,17.437c0,0.58,0.082,1.05,1.082,1.05v3.46l1,0.434v-0.658l1-1.597v-0.771
		c1,0,1.258-0.522,1.258-1.103l0.213-0.804h-0.931l-1.818-1.794l-2.796,0.022l0.973,1.001L9.929,17.437z"/>
	<path fill="#FFFFFF" d="M16.089,13.868c0.74,0,1.338-0.598,1.338-1.34h-1.338V13.868z"/>
	<path fill="#FFFFFF" d="M19.944,20.2v0.535c0.295,0,0.535-0.24,0.535-0.535v-0.536C20.187,19.664,19.944,19.903,19.944,20.2z"/>
	<path fill="#FFFFFF" d="M15.608,14.448c-0.344,0-0.598,0.355-0.598,0.697v0.603c0,1.038,0.816,1.7,1.855,1.7h1.145v2.405
		l0.697,0.595h1.303v-0.683v-0.894V17.78l-2.238-3.332H15.608z"/>
	<path fill="#FFFFFF" d="M12.144,8.039L11.46,9.081l0.389,0.592l0.003,0.266l1.079,1.299l0.428-0.979
		c0.912,0,1.652-0.742,1.652-1.653L12.144,8.039z"/>
</g>
</svg>
