<?xml version="1.0" encoding="utf-8"?>
<!-- Generator: Adobe Illustrator 16.0.0, SVG Export Plug-In . SVG Version: 6.00 Build 0)  -->
<!DOCTYPE svg PUBLIC "-//W3C//DTD SVG 1.1//EN" "http://www.w3.org/Graphics/SVG/1.1/DTD/svg11.dtd">
<svg version="1.1" id="Capa_1" xmlns="http://www.w3.org/2000/svg" xmlns:xlink="http://www.w3.org/1999/xlink" x="0px" y="0px"
	 width="30px" height="30px" viewBox="0 0 30 30" enable-background="new 0 0 30 30" xml:space="preserve">
<path fill="#1B1F25" d="M27.77,14.448H11.357c-0.466-3-2.535-4.402-5.012-4.402c-2.82,0-5.115,2.149-5.115,4.969
	c0,2.822,2.295,5.333,5.115,5.333c2.478,0,4.546-1.899,5.012-3.899h9.328c-0.024,0,0.325-0.367,0.325-0.256V17.1
	c0,0.78,0.271,1.349,1.051,1.349h2.903c0.779,0,1.046-0.568,1.046-1.349v-0.907c0-0.111,0.354,0.256,0.33,0.256h1.429
	c0.553,0,1-0.447,1-1S28.322,14.448,27.77,14.448z M6.346,17.986c-1.718,0-3.115-1.397-3.115-3.116c0-1.716,1.397-3.113,3.115-3.113
	c1.717,0,3.113,1.397,3.113,3.113C9.459,16.589,8.062,17.986,6.346,17.986z"/>
</svg>
