<?xml version="1.0" encoding="utf-8"?>
<!-- Generator: Adobe Illustrator 16.0.0, SVG Export Plug-In . SVG Version: 6.00 Build 0)  -->
<!DOCTYPE svg PUBLIC "-//W3C//DTD SVG 1.1//EN" "http://www.w3.org/Graphics/SVG/1.1/DTD/svg11.dtd">
<svg version="1.1" id="Capa_1" xmlns="http://www.w3.org/2000/svg" xmlns:xlink="http://www.w3.org/1999/xlink" x="0px" y="0px"
	 width="100px" height="100px" viewBox="0 0 100 100" enable-background="new 0 0 100 100" xml:space="preserve">
<g>
	<path fill="#FFFFFF" d="M95.274,85.994c-1.619,0-2.382-0.804-3.438-1.917c-1.206-1.27-2.707-2.851-5.614-2.851
		s-4.408,1.581-5.614,2.851c-1.057,1.113-1.819,1.917-3.438,1.917s-2.383-0.804-3.439-1.917c-1.206-1.27-2.707-2.851-5.615-2.851
		c-2.907,0-4.408,1.581-5.614,2.851c-1.057,1.113-1.82,1.917-3.439,1.917c-1.618,0-2.382-0.804-3.438-1.916
		c-1.206-1.271-2.706-2.852-5.614-2.852s-4.409,1.581-5.615,2.851c-1.056,1.113-1.819,1.917-3.438,1.917
		c-1.62,0-2.384-0.804-3.441-1.917c-1.206-1.27-2.708-2.851-5.616-2.851c-2.908,0-4.409,1.581-5.615,2.851
		c-1.057,1.113-1.82,1.917-3.439,1.917c-1.621,0-2.385-0.804-3.442-1.917c-1.207-1.27-2.708-2.851-5.618-2.851
		c-2.909,0-4.411,1.581-5.617,2.851c-1.058,1.113-1.821,1.917-3.442,1.917c-0.829,0-1.5,0.672-1.5,1.5s0.671,1.5,1.5,1.5
		c2.909,0,4.411-1.581,5.617-2.851c1.058-1.113,1.821-1.917,3.442-1.917s2.385,0.804,3.443,1.917
		c1.207,1.271,2.708,2.851,5.617,2.851c2.908,0,4.409-1.581,5.615-2.851c1.057-1.113,1.82-1.917,3.439-1.917
		c1.62,0,2.384,0.804,3.441,1.917c1.206,1.27,2.708,2.851,5.616,2.851c2.907,0,4.408-1.581,5.614-2.851
		c1.056-1.113,1.82-1.917,3.439-1.917c1.619,0,2.381,0.804,3.438,1.917c1.206,1.27,2.706,2.851,5.613,2.851
		c2.908,0,4.409-1.581,5.615-2.852c1.057-1.112,1.819-1.916,3.438-1.916s2.383,0.804,3.439,1.917
		c1.206,1.27,2.707,2.851,5.615,2.851c2.907,0,4.408-1.581,5.614-2.851c1.057-1.113,1.819-1.917,3.438-1.917
		s2.382,0.804,3.438,1.917c1.206,1.27,2.707,2.851,5.614,2.851c0.828,0,1.5-0.672,1.5-1.5S96.103,85.994,95.274,85.994z"/>
	<path fill="#FFFFFF" d="M94.169,32.359c-1.826-0.838-3.986-0.827-5.79-0.131c0.004-0.587-0.009-1.179-0.069-1.771
		c-0.05-0.479-0.126-0.939-0.203-1.397c-0.109-0.656-0.214-1.275-0.213-1.909c0.001-0.58-0.022-1.185-0.047-1.799
		c-0.068-1.738-0.139-3.536,0.403-4.886c0.145-0.358,0.484-0.971,0.813-1.563c1.156-2.082,1.92-3.457,1.033-4.587
		c-0.105-0.135-0.396-0.449-0.899-0.586c-0.011-0.125-0.03-0.254-0.062-0.384c-0.718-2.883-2.592-2.969-3.155-2.931
		c-1.863,0.14-3.35,2.205-3.517,3.974c-0.086,0.913-0.123,1.902-0.163,2.949c-0.071,1.87-0.145,3.803-0.501,5.269
		c-0.344,1.419-0.561,2.654-0.771,3.849c-0.294,1.68-0.572,3.266-1.18,5.14c-0.181,0.559-0.552,1.301-0.945,2.086
		c-0.817,1.63-1.662,3.315-1.657,4.888l0.003,0.358c0.006,0.583,0.012,1.139-0.08,1.606c-0.784,0.068-1.39,0.736-1.368,1.533
		c0.021,0.829,0.719,1.487,1.538,1.46l0.295-0.003c1.497-0.004,1.979-0.662,2.346-1.875c0.288-0.951,0.278-1.908,0.27-2.752
		l-0.003-0.336c-0.003-0.857,0.741-2.342,1.339-3.534c0.446-0.891,0.868-1.732,1.118-2.507c0.672-2.072,0.968-3.759,1.28-5.545
		c0.201-1.147,0.409-2.334,0.731-3.659c0.035-0.145,0.067-0.292,0.099-0.441c-0.031,0.886,0.003,1.766,0.036,2.599
		c0.022,0.573,0.045,1.136,0.044,1.676c-0.001,0.886,0.129,1.661,0.255,2.411c0.066,0.396,0.134,0.794,0.177,1.208
		c0.09,0.878,0.056,1.816,0.02,2.811c-0.019,0.518-0.035,1.033-0.037,1.538c0,0.002,0,0.005,0,0.008
		c0,0.016-0.001,0.032-0.001,0.047c0,0.661,0.02,1.336,0.04,2.016c0.052,1.759,0.105,3.579-0.226,5.157
		c-0.161,0.768-0.507,1.505-0.872,2.286c-0.241,0.515-0.49,1.048-0.709,1.631c-0.428,1.15-1.221,1.989-2.576,2.721
		c-1.081,0.588-2.152,0.996-3.146,1.349c-0.319,0.113-0.667,0.253-1.03,0.399c-0.473,0.191-1.002,0.403-1.506,0.561
		c0.59-2.165,0.466-5.626-2.319-10.8c0.238-0.016,0.477-0.083,0.692-0.218c0.703-0.438,0.917-1.364,0.479-2.067
		c-0.431-0.69-1.139-0.788-1.763-0.874c-0.688-0.094-1.631-0.224-2.138-0.853c-1.785-2.211-3.751-4.03-5.652-5.79
		c-1.955-1.809-3.976-3.679-5.796-5.979l-0.525-0.655c-1.298-1.605-3.997-4.946-3.582-6.608c0.276-1.103-0.245-1.67-0.58-1.91
		c-0.493-0.353-0.983-0.337-1.369-0.221c-0.058-0.12-0.113-0.238-0.163-0.345c-0.41-0.877-0.875-1.872-2.01-1.877
		c-0.003,0-0.005,0-0.007,0c-1.062,0-1.943,0.604-2.359,1.617c-1.249,3.04,1.831,10.585,5.991,14.677
		c0.632,0.623,1.295,1.254,1.969,1.896c2.787,2.655,5.651,5.399,7.356,8.483c-4.733-0.123-9.505-1.854-15.59-4.613
		c-0.293-0.133-0.627-0.194-2.199-0.45c-0.529-0.086-1.308-0.212-1.58-0.273c-2.65-1.221-5.289-2.592-7.841-3.917
		c-5.67-2.945-11.057-5.744-16.21-6.795c-0.011-0.041-0.021-0.076-0.03-0.105c-0.54-1.691-2.979-2.292-4.903-2.292
		c-1.137,0-2.82,0.199-4.383,1.147c-1.028,0.625-1.867,0.666-3.028,0.722c-1.097,0.053-2.461,0.12-4.125,0.755
		c-0.513,0.196-0.877,0.656-0.951,1.2c-0.311,2.292,1.712,3.642,2.825,4.036c0.246,0.087,0.509,0.108,0.765,0.062
		c1.329-0.238,2.664-0.358,3.969-0.358c9.141,0,16.463,5.746,24.216,11.83c1.956,1.535,3.978,3.122,6.02,4.599
		c0.923,0.667,1.953,0.887,2.86,1.081c0.647,0.139,1.259,0.27,1.666,0.537c3.015,1.981,5.742,3.48,8.335,4.582
		c4.181,1.779,10.497,4.469,15.126,4.469c0.876,0,1.683-0.095,2.397-0.282c0.937-0.245,1.765-0.672,2.455-1.249
		c0.012,0.003,0.022,0.008,0.034,0.01c0.243,0.041,0.489,0.06,0.735,0.06c1.349,0,2.713-0.552,3.843-1.009
		c0.32-0.129,0.625-0.253,0.908-0.353c1.111-0.395,2.314-0.854,3.575-1.54c1.982-1.072,3.277-2.482,3.957-4.31
		c0.182-0.486,0.399-0.948,0.614-1.407c0.047-0.101,0.094-0.204,0.141-0.305c3.503-0.001,9.028-2.363,10.064-6.726
		C97.847,36.013,96.696,33.519,94.169,32.359z M58.217,29.108c-0.661-0.63-1.312-1.249-1.933-1.861
		c-2.615-2.573-4.394-6.375-5.087-8.916c0.14,0.107,0.309,0.204,0.508,0.268c0.41,2.624,2.64,5.383,4.221,7.339l0.505,0.63
		c1.966,2.483,4.073,4.434,6.111,6.32c1.907,1.764,3.708,3.431,5.355,5.472c0.277,0.344,0.586,0.616,0.904,0.845
		c-0.737,0.181-1.472,0.305-2.207,0.401c0.011-0.249-0.034-0.502-0.155-0.74C64.543,35.132,61.183,31.932,58.217,29.108z
		 M70.084,52.795c-0.467,0.122-1.019,0.185-1.638,0.185c-4.018,0-9.995-2.545-13.952-4.229c-2.428-1.031-4.999-2.447-7.861-4.328
		c-0.877-0.577-1.838-0.782-2.686-0.963c-0.679-0.145-1.32-0.282-1.73-0.579c-1.994-1.442-3.992-3.01-5.925-4.527
		c-7.788-6.111-15.84-12.43-25.972-12.47c0.634-0.163,1.302-0.424,2.007-0.853c0.756-0.459,1.76-0.712,2.826-0.712
		c0.676,0,1.215,0.099,1.593,0.21c-0.065,0.243-0.07,0.503-0.006,0.757c0.15,0.6,0.653,1.045,1.267,1.123
		c5.136,0.649,10.854,3.619,16.907,6.764c2.616,1.359,5.321,2.764,8.065,4.025c0.287,0.133,0.561,0.189,2.257,0.465
		c0.516,0.083,1.275,0.207,1.541,0.266c6.632,3.001,11.841,4.859,17.265,4.859c2.12,0,4.187-0.289,6.284-0.881
		c2.045,3.806,2.734,7.099,1.889,9.1C71.825,51.925,71.108,52.526,70.084,52.795z M85.15,20.315c0.074-0.942,0.11-1.911,0.147-2.865
		c0.038-1.004,0.074-1.953,0.151-2.782c0.041-0.436,0.352-0.905,0.6-1.135c0.05,0.104,0.107,0.251,0.16,0.456
		c0.005,0.083-0.008,0.175-0.015,0.264c-0.04,0.498-0.114,1.425,0.662,2.068c0.046,0.037,0.092,0.072,0.14,0.105
		c-0.188,0.357-0.396,0.731-0.555,1.019c-0.392,0.704-0.761,1.369-0.975,1.902C85.339,19.663,85.235,19.986,85.15,20.315z
		 M94.252,38.176c-0.519,2.184-3.52,3.956-6.127,4.338c0.312-1.79,0.273-3.632,0.221-5.419c-0.014-0.46-0.021-0.913-0.027-1.366
		c1.057-1.026,3.075-1.343,4.599-0.644C94.153,35.653,94.603,36.693,94.252,38.176z"/>
</g>
</svg>
