<?xml version="1.0" encoding="utf-8"?>
<!-- Generator: Adobe Illustrator 16.0.0, SVG Export Plug-In . SVG Version: 6.00 Build 0)  -->
<!DOCTYPE svg PUBLIC "-//W3C//DTD SVG 1.1//EN" "http://www.w3.org/Graphics/SVG/1.1/DTD/svg11.dtd">
<svg version="1.1" id="Capa_1" xmlns="http://www.w3.org/2000/svg" xmlns:xlink="http://www.w3.org/1999/xlink" x="0px" y="0px"
	 width="100px" height="100px" viewBox="0 0 100 100" enable-background="new 0 0 100 100" xml:space="preserve">
<g>
	<path fill="#FFFFFF" d="M52.254,37.987c-1.18-5.073-5.637-8.617-10.839-8.617c-0.848,0-1.699,0.098-2.532,0.292
		c-5.981,1.393-9.716,7.392-8.326,13.372c1.18,5.074,5.638,8.618,10.841,8.618c0.847,0,1.699-0.099,2.531-0.292
		C49.911,49.969,53.646,43.97,52.254,37.987z M41.398,48.652c-3.8,0-7.057-2.589-7.919-6.297c-0.001-0.005-0.001-0.009-0.002-0.014
		l7.91-1.917l-1.824-7.839h0c0.61-0.142,1.233-0.214,1.852-0.214c3.8,0,7.055,2.589,7.917,6.296c0.001,0.005,0.001,0.01,0.003,0.015
		l-7.909,1.917l1.824,7.84l0,0C42.64,48.58,42.017,48.652,41.398,48.652z"/>
	<path fill="#FFFFFF" d="M76.973,24.343c-3.54-13.541-18.41-17.849-19.009-18.016c-5.539-1.688-22.097-3.492-32.066,8.287
		c-11.063,13.073-6.391,28.704-2.27,42.494l0.609,2.044c3.821,12.901-0.729,20.403-0.771,20.472
		c-0.445,0.698-0.24,1.626,0.458,2.071c0.698,0.444,1.626,0.239,2.071-0.458c0.221-0.346,5.354-8.636,1.119-22.937l-0.611-2.051
		c-3.904-13.061-8.328-27.865,1.685-39.698c10.58-12.502,28.719-7.41,28.934-7.346c0.138,0.039,13.839,4.003,16.971,15.972
		c1.369,4.296,4.693,16.524,3.641,21.452l-0.075,0.352c-0.649,3.043-0.733,3.435-1.358,7.64c-0.072,0.482,0.006,1.345,0.33,4.272
		c0.107,0.968,0.245,2.211,0.302,2.863c-0.261,0.092-0.608,0.188-0.851,0.256c-1.137,0.315-2.552,0.709-2.749,2.091
		c-0.062,0.446-0.139,1.466-0.279,3.38c-0.257,3.498-0.857,11.939-1.47,13.377C70.979,82.281,70.356,84,61.484,84
		c-0.056,0-0.113,0-0.17,0c-8.366-1-15.589-11.914-15.662-12.031c-0.432-0.707-1.356-1.056-2.062-0.622
		c-0.707,0.432-0.93,1.291-0.499,1.998c0.191,0.312,2.914,4.674,7.127,8.312c-0.06,0.737-0.204,2.192-0.552,4.876
		c-0.668,5.162,1.728,7.782,1.831,7.892c0.295,0.315,0.694,0.471,1.095,0.471c0.367,0,0.735-0.136,1.025-0.407
		c0.604-0.565,0.636-1.516,0.069-2.121c-0.015-0.017-1.525-1.749-1.045-5.464c0.171-1.314,0.293-2.095,0.383-2.907
		C55.494,85.602,58.301,86,61.308,87c0.06,0,0.118,0,0.178,0c9.223,0,11.503-1.775,12.858-4.965
		c0.745-1.75,1.229-7.784,1.701-14.206c0.077-1.056,0.147-2.072,0.2-2.677c0.202-0.064,0.449-0.164,0.64-0.218
		c1.19-0.33,2.82-0.799,3.042-2.324c0.065-0.449-0.009-1.271-0.315-4.039c-0.141-1.268-0.353-3.188-0.345-3.505
		c0.611-4.112,0.68-4.43,1.325-7.456l0.075-0.353C82.101,40.549,77.161,24.929,76.973,24.343z"/>
</g>
</svg>
