<?xml version="1.0" encoding="utf-8"?>
<!-- Generator: Adobe Illustrator 16.0.0, SVG Export Plug-In . SVG Version: 6.00 Build 0)  -->
<!DOCTYPE svg PUBLIC "-//W3C//DTD SVG 1.1//EN" "http://www.w3.org/Graphics/SVG/1.1/DTD/svg11.dtd">
<svg version="1.1" id="Capa_1" xmlns="http://www.w3.org/2000/svg" xmlns:xlink="http://www.w3.org/1999/xlink" x="0px" y="0px"
	 width="30px" height="30px" viewBox="0 0 30 30" enable-background="new 0 0 30 30" xml:space="preserve">
<path fill="#FFFFFF" d="M22.144,9.033c-2.23,0-4.177,1.234-5.199,3.053c-0.537-0.407-1.198-0.658-1.922-0.658
	c-0.737,0-1.409,0.261-1.951,0.683c-1.02-1.833-2.974-3.078-5.215-3.078c-3.29,0-5.967,2.678-5.967,5.969
	c0,3.289,2.677,5.965,5.967,5.965c3.29,0,5.966-2.676,5.966-5.965c0-0.1-0.01-0.197-0.015-0.296
	c0.002-0.025,0.015-0.048,0.015-0.074c0-0.664,0.539-1.203,1.201-1.203c0.625,0,1.125,0.487,1.181,1.1
	c-0.013,0.156-0.024,0.313-0.024,0.474c0,3.289,2.676,5.965,5.965,5.965c3.29,0,5.967-2.676,5.967-5.965
	C28.11,11.711,25.434,9.033,22.144,9.033z M7.856,18.967c-2.188,0-3.967-1.778-3.967-3.965c0-2.188,1.779-3.969,3.967-3.969
	c2.187,0,3.966,1.78,3.966,3.969C11.822,17.188,10.042,18.967,7.856,18.967z M22.144,18.967c-2.187,0-3.965-1.778-3.965-3.965
	c0-0.101,0.022-0.196,0.029-0.295c0.003-0.026,0.016-0.049,0.016-0.075c0-0.013-0.004-0.024-0.004-0.037
	c0.207-1.995,1.877-3.562,3.924-3.562c2.188,0,3.967,1.78,3.967,3.969C26.11,17.188,24.331,18.967,22.144,18.967z"/>
</svg>
